<svg xmlns="http://www.w3.org/2000/svg" xmlns:xlink="http://www.w3.org/1999/xlink" width="500" zoomAndPan="magnify" viewBox="0 0 375 374.999991" height="500" preserveAspectRatio="xMidYMid meet" version="1.0"><defs><g/></defs><g fill="#4ecdc4" fill-opacity="1"><g transform="translate(11.413471, 267.927508)"><g><path d="M 80.328125 3.34375 C 56.171875 3.34375 37.414062 -1.820312 24.0625 -12.15625 C 10.71875 -22.488281 4.046875 -36.867188 4.046875 -55.296875 L 68.40625 -55.296875 C 68.40625 -46.554688 72.535156 -42.1875 80.796875 -42.1875 C 87.953125 -42.1875 91.53125 -44.96875 91.53125 -50.53125 C 91.53125 -54.03125 89.660156 -56.769531 85.921875 -58.75 C 82.191406 -60.738281 75.640625 -62.445312 66.265625 -63.875 C 45.128906 -67.050781 29.675781 -72.734375 19.90625 -80.921875 C 10.132812 -89.109375 5.25 -100.75 5.25 -115.84375 C 5.25 -132.84375 11.722656 -146.148438 24.671875 -155.765625 C 37.617188 -165.378906 55.457031 -170.1875 78.1875 -170.1875 C 101.226562 -170.1875 119.257812 -165.179688 132.28125 -155.171875 C 145.3125 -145.160156 152.226562 -130.9375 153.03125 -112.5 L 90.578125 -112.5 C 90.578125 -121.082031 86.601562 -125.375 78.65625 -125.375 C 71.507812 -125.375 67.9375 -122.671875 67.9375 -117.265625 C 67.9375 -113.773438 69.757812 -111.078125 73.40625 -109.171875 C 77.0625 -107.265625 83.738281 -105.59375 93.4375 -104.15625 C 115.6875 -100.820312 131.734375 -95.0625 141.578125 -86.875 C 151.429688 -78.695312 156.359375 -67.0625 156.359375 -51.96875 C 156.359375 -34.644531 149.722656 -21.09375 136.453125 -11.3125 C 123.191406 -1.539062 104.484375 3.34375 80.328125 3.34375 Z M 80.328125 3.34375 "/></g></g></g><g fill="#4ecdc4" fill-opacity="1"><g transform="translate(155.857536, 267.927508)"><g><path d="M 11.671875 0 L 11.671875 -166.859375 L 102.015625 -166.859375 C 116.796875 -166.859375 129.46875 -164.3125 140.03125 -159.21875 C 150.601562 -154.132812 158.75 -146.941406 164.46875 -137.640625 C 170.1875 -128.347656 173.046875 -117.1875 173.046875 -104.15625 C 173.046875 -93.832031 171.21875 -84.617188 167.5625 -76.515625 C 163.90625 -68.410156 158.582031 -61.578125 151.59375 -56.015625 L 176.625 0 L 104.15625 0 L 88.4375 -41.46875 L 78.65625 -41.46875 L 78.65625 0 Z M 77.703125 -87.71875 L 89.140625 -87.71875 C 94.234375 -87.71875 98.207031 -88.988281 101.0625 -91.53125 C 103.925781 -94.070312 105.359375 -97.804688 105.359375 -102.734375 C 105.359375 -107.816406 103.925781 -111.550781 101.0625 -113.9375 C 98.207031 -116.320312 94.234375 -117.515625 89.140625 -117.515625 L 77.703125 -117.515625 Z M 77.703125 -87.71875 "/></g></g></g></svg>